# xmcd
#
# Track frame offsets:
#	150
#	19106
#	42703
#	64633
#	78433
#	96615
#	111071
#	132221
#	154273
#	170746
#	195355
#	208243
#	231320
#	264677
#	293165
#	312850
#
# Disc length: 4347 seconds
#
# Revision: 3
# Processed by: cddbd v1.5.2PL0 Copyright (c) Steve Scherf et al.
# Submitted via: EasyCDDAExtractor 15.2.5.1
#
DISCID=ed10f910
DTITLE=Various Artist - Country Outlaws - Renegade Country Music [CD2)
DYEAR=2003
DGENRE=Country
TTITLE0=Joe  Ely - Me And Billy The Kid (Live)
TTITLE1=Joe Ely - My Eyes Got Lucky (Live)
TTITLE2=Jimmie Dale Gilmore - Ripple
TTITLE3=Jimmie Dale Gilmore - Banks Of Guadelupe
TTITLE4=Townes Van Zandt - Pancho and Lefty (Live)
TTITLE5=Townes Van Zandt - Waitin' 'Round To Die (Live)
TTITLE6=Townes Van Zandt - Tecumseh Valley (Live)
TTITLE7=Guy Clark - Let Him Roll (Live)
TTITLE8=Guy Clark - Immigrant Eyes
TTITLE9=Guy Clark - Desperadoes Waiting For A Train (Live)
TTITLE10=Terry Allen - Bloodlines 1
TTITLE11=Terry Allen - There Ought To Be A Law Against Sunny Southern Californ
TTITLE11=ia
TTITLE12=Terry Allen - New Dehli Freight Train
TTITLE13=Butch Hancock - Boxcars
TTITLE14=Butch Hancock - West Texas Waltz
TTITLE15=Doug Sahm and Band - Texas Tornado
EXTD=YEAR: 2003
EXTT0=
EXTT1=
EXTT2=
EXTT3=
EXTT4=
EXTT5=
EXTT6=
EXTT7=
EXTT8=
EXTT9=
EXTT10=
EXTT11=
EXTT12=
EXTT13=
EXTT14=
EXTT15=
PLAYORDER=
